<?xml version="1.0" encoding="utf-8"?>
<svg version="1.1" xmlns:xlink="http://www.w3.org/1999/xlink" width="19px" height="19px" viewBox="258 382  19 19" xmlns="http://www.w3.org/2000/svg">
  <path d="M 267.5 382  C 272.82 382  277 386.18  277 391.5  C 277 396.82  272.82 401  267.5 401  C 262.18 401  258 396.82  258 391.5  C 258 386.18  262.18 382  267.5 382  Z " fill-rule="nonzero" fill="#ffffff" stroke="none" />
  <path d="M 267.5 382.5  C 272.54 382.5  276.5 386.46  276.5 391.5  C 276.5 396.54  272.54 400.5  267.5 400.5  C 262.46 400.5  258.5 396.54  258.5 391.5  C 258.5 386.46  262.46 382.5  267.5 382.5  Z " stroke-width="1" stroke="#f59a23" fill="none" />
  <path d="M 267.5 396.25  C 264.84 396.25  262.75 394.16  262.75 391.5  C 262.75 388.84  264.84 386.75  267.5 386.75  C 270.16 386.75  272.25 388.84  272.25 391.5  C 272.25 394.16  270.16 396.25  267.5 396.25  " fill-rule="nonzero" fill="#f59a23" stroke="none" />
</svg>