<?xml version="1.0" encoding="utf-8"?>
<svg version="1.1" xmlns:xlink="http://www.w3.org/1999/xlink" width="19px" height="11px" xmlns="http://www.w3.org/2000/svg">
  <g transform="matrix(1 0 0 1 -359 -1061 )">
    <path d="M 19 2.4391304347826095  C 19 2.626892109500805  18.92535153019024 2.7880837359098223  18.77605459057072 2.9227053140096615  L 10.030397022332505 10.798067632850241  C 9.881100082712987 10.93268921095008  9.704301075268816 11  9.5 11  C 9.295698924731184 11  9.118899917287015 10.93268921095008  8.969602977667494 10.798067632850241  L 0.2239454094292804 2.9227053140096615  C 0.07464846980976024 2.7880837359098223  0 2.626892109500805  0 2.4391304347826095  C 0 2.251368760064411  0.07464846980976024 2.090177133655394  0.2239454094292804 1.955555555555556  L 2.180521091811414 0.20193236714975837  C 2.3298180314309347 0.06731078904991905  2.506617038875104 0  2.7109181141439205 0  C 2.9152191894127384 0  3.092018196856907 0.06731078904991905  3.2413151364764268 0.20193236714975837  L 9.5 5.845410628019323  L 15.758684863523573 0.20193236714975837  C 15.907981803143095 0.06731078904991905  16.08478081058726 0  16.28908188585608 0  C 16.4933829611249 0  16.670181968569068 0.06731078904991905  16.819478908188586 0.20193236714975837  L 18.77605459057072 1.955555555555556  C 18.92535153019024 2.090177133655394  19 2.251368760064411  19 2.4391304347826095  Z " fill-rule="nonzero" fill="#aaaaaa" stroke="none" transform="matrix(1 0 0 1 359 1061 )" />
  </g>
</svg>