<?xml version="1.0" encoding="utf-8"?>
<svg version="1.1" xmlns:xlink="http://www.w3.org/1999/xlink" width="34px" height="37px" xmlns="http://www.w3.org/2000/svg">
  <g transform="matrix(1 0 0 1 -273 -1048 )">
    <path d="M 12.146306818181818 30.616536458333336  C 12.291193181818182 30.472005208333336  12.363636363636363 30.287326388888886  13 30.0625  L 13 13.104166666666666  C 12.363636363636363 12.879340277777779  12.291193181818182 12.694661458333334  12.146306818181818 12.550130208333334  C 12.001420454545453 12.405598958333334  11.81628787878788 12.333333333333334  11.59090909090909 12.333333333333334  L 10.045454545454547 12.333333333333334  C 9.82007575757576 12.333333333333334  9.634943181818183 12.405598958333334  9.490056818181818 12.550130208333334  C 9.345170454545453 12.694661458333334  9.272727272727272 12.879340277777779  9.272727272727272 13.104166666666666  L 9.272727272727272 30.0625  C 9.272727272727272 30.287326388888886  9.345170454545453 30.472005208333336  9.490056818181818 30.616536458333336  C 9.634943181818183 30.761067708333336  9.82007575757576 30.833333333333336  10.045454545454547 30.833333333333336  L 11.59090909090909 30.833333333333336  C 11.81628787878788 30.833333333333336  12.001420454545453 30.761067708333336  12.146306818181818 30.616536458333336  Z M 18.328125 30.616536458333336  C 18.473011363636363 30.472005208333336  18.545454545454543 30.287326388888886  18 30.0625  L 18 13.104166666666666  C 18.545454545454543 12.879340277777779  18.473011363636363 12.694661458333334  18.328125 12.550130208333334  C 18.183238636363637 12.405598958333334  17.998106060606062 12.333333333333334  17.772727272727273 12.333333333333334  L 16.227272727272727 12.333333333333334  C 16.00189393939394 12.333333333333334  15.816761363636363 12.405598958333334  15.671875 12.550130208333334  C 15.526988636363637 12.694661458333334  15.454545454545453 12.879340277777779  16 13.104166666666666  L 16 30.0625  C 15.454545454545453 30.287326388888886  15.526988636363637 30.472005208333336  15.671875 30.616536458333336  C 15.816761363636363 30.761067708333336  16.00189393939394 30.833333333333336  16.227272727272727 30.833333333333336  L 17.772727272727273 30.833333333333336  C 17.998106060606062 30.833333333333336  18.183238636363637 30.761067708333336  18.328125 30.616536458333336  Z M 24.50994318181818 30.616536458333336  C 24.654829545454543 30.472005208333336  24.727272727272727 30.287326388888886  24.727272727272727 30.0625  L 24.727272727272727 13.104166666666666  C 24.727272727272727 12.879340277777779  24.654829545454543 12.694661458333334  24.50994318181818 12.550130208333334  C 24.36505681818182 12.405598958333334  24.179924242424242 12.333333333333334  23.954545454545457 12.333333333333334  L 22.409090909090907 12.333333333333334  C 22.18371212121212 12.333333333333334  21.998579545454543 12.405598958333334  21.85369318181818 12.550130208333334  C 21.70880681818182 12.694661458333334  21.636363636363637 12.879340277777779  21 13.104166666666666  L 21 30.0625  C 21.636363636363637 30.287326388888886  21.70880681818182 30.472005208333336  21.85369318181818 30.616536458333336  C 21.998579545454543 30.761067708333336  22.18371212121212 30.833333333333336  22.409090909090907 30.833333333333336  L 23.954545454545457 30.833333333333336  C 24.179924242424242 30.833333333333336  24.36505681818182 30.761067708333336  24.50994318181818 30.616536458333336  Z M 12.774147727272728 3.348307291666665  L 11.59090909090909 6.166666666666665  L 22.409090909090907 6.166666666666665  L 21.25 3.348307291666665  C 21.13731060606061 3.203776041666665  21.000473484848484 3.115451388888887  20.839488636363637 3.083333333333335  L 13.18465909090909 3.083333333333335  C 13.023674242424242 3.115451388888887  12.886837121212123 3.203776041666665  12.774147727272728 3.348307291666665  Z M 33.78267045454545 6.383463541666665  C 33.92755681818182 6.527994791666665  34 6.712673611111109  34 6.9375  L 34 8.479166666666666  C 34 8.703993055555552  33.92755681818182 8.888671875  33.78267045454545 9.033203125  C 33.63778409090909 9.177734375  33.452651515151516 9.25  33.22727272727273 9.25  L 31 9.25  L 31 32.0859375  C 30.909090909090907 33.41883680555555  30.53077651515152 34.571072048611114  29.774147727272727 35.542643229166664  C 29.01751893939394 36.51421440972222  28.107954545454543 37  27.045454545454543 37  L 6.954545454545455 37  C 5.892045454545455 37  4.982481060606061 36.5302734375  4.2258522727272725 35.5908203125  C 3.4692234848484853 34.6513671875  3.090909090909091 33.51519097222222  3 32.182291666666664  L 3 9.25  L 0.7727272727272727 9.25  C 0.5473484848484849 9.25  0.3622159090909091 9.177734375  0.21732954545454547 9.033203125  C 0.07244318181818181 8.888671875  0 8.703993055555552  0 8.479166666666666  L 0 6.9375  C 0 6.712673611111109  0.07244318181818181 6.527994791666665  0.21732954545454547 6.383463541666665  C 0.3622159090909091 6.238932291666665  0.5473484848484849 6.166666666666665  0.7727272727272727 6.166666666666665  L 8.234375 6.166666666666665  L 9.92471590909091 2.143880208333335  C 10.166193181818183 1.5496961805555522  10.600852272727273 1.0438368055555522  11.228693181818182 0.6263020833333347  C 11.856534090909092 0.20876736111110883  12.492424242424242 0  13.136363636363637 0  L 20.863636363636363 0  C 21.50757575757576 0  22.143465909090907 0.20876736111110883  22.77130681818182 0.6263020833333347  C 23.399147727272727 1.0438368055555522  23.83380681818182 1.5496961805555522  24.075284090909093 2.143880208333335  L 25.765625 6.166666666666665  L 33.22727272727273 6.166666666666665  C 33.452651515151516 6.166666666666665  33.63778409090909 6.238932291666665  33.78267045454545 6.383463541666665  Z " fill-rule="nonzero" fill="#000000" stroke="none" transform="matrix(1 0 0 1 273 1048 )" />
  </g>
</svg>