<?xml version="1.0" encoding="utf-8"?>
<svg version="1.1" xmlns:xlink="http://www.w3.org/1999/xlink" width="19px" height="19px" viewBox="218 98  19 19" xmlns="http://www.w3.org/2000/svg">
  <path d="M 227.5 98  C 232.82 98  237 102.18  237 107.5  C 237 112.82  232.82 117  227.5 117  C 222.18 117  218 112.82  218 107.5  C 218 102.18  222.18 98  227.5 98  Z " fill-rule="nonzero" fill="#ffffff" stroke="none" />
  <path d="M 227.5 98.5  C 232.54 98.5  236.5 102.46  236.5 107.5  C 236.5 112.54  232.54 116.5  227.5 116.5  C 222.46 116.5  218.5 112.54  218.5 107.5  C 218.5 102.46  222.46 98.5  227.5 98.5  Z " stroke-width="1" stroke="#f59a23" fill="none" />
  <path d="M 227.5 112.25  C 224.84 112.25  222.75 110.16  222.75 107.5  C 222.75 104.84  224.84 102.75  227.5 102.75  C 230.16 102.75  232.25 104.84  232.25 107.5  C 232.25 110.16  230.16 112.25  227.5 112.25  " fill-rule="nonzero" fill="#f59a23" stroke="none" />
</svg>