<?xml version="1.0" encoding="utf-8"?>
<svg version="1.1" xmlns:xlink="http://www.w3.org/1999/xlink" width="19px" height="19px" viewBox="575 108.5  19 19" xmlns="http://www.w3.org/2000/svg">
  <path d="M 584.5 108.5  C 589.82 108.5  594 112.68  594 118  C 594 123.32  589.82 127.5  584.5 127.5  C 579.18 127.5  575 123.32  575 118  C 575 112.68  579.18 108.5  584.5 108.5  Z " fill-rule="nonzero" fill="#ffffff" stroke="none" />
  <path d="M 584.5 109  C 589.54 109  593.5 112.96  593.5 118  C 593.5 123.04  589.54 127  584.5 127  C 579.46 127  575.5 123.04  575.5 118  C 575.5 112.96  579.46 109  584.5 109  Z " stroke-width="1" stroke="#f59a23" fill="none" />
  <path d="M 584.5 122.75  C 581.84 122.75  579.75 120.66  579.75 118  C 579.75 115.34  581.84 113.25  584.5 113.25  C 587.16 113.25  589.25 115.34  589.25 118  C 589.25 120.66  587.16 122.75  584.5 122.75  " fill-rule="nonzero" fill="#f59a23" stroke="none" />
</svg>